<svg xmlns="http://www.w3.org/2000/svg" width="760" height="318" viewBox="0 0 760 318" role="img" aria-label="Gemma-4-26B-A4B decode — GTX 1650 4 GB laptop">
<rect width="760" height="318" fill="#0d1117"/>
<text x="24" y="32" font-family="-apple-system,'Segoe UI',Helvetica,Arial,sans-serif" font-size="16" font-weight="600" fill="#e6edf3">Gemma-4-26B-A4B decode — GTX 1650 4 GB laptop</text>
<text x="24" y="52" font-family="-apple-system,'Segoe UI',Helvetica,Arial,sans-serif" font-size="12" fill="#8b949e">same 26B model on a 4 GB card, driver 535 · 280 of 3840 expert banks fit in VRAM</text>
<line x1="262.0" y1="70" x2="262.0" y2="260" stroke="#2a313c" stroke-width="1"/>
<text x="262.0" y="276" font-family="-apple-system,'Segoe UI',Helvetica,Arial,sans-serif" font-size="11" fill="#8b949e" text-anchor="middle" style="font-variant-numeric:tabular-nums">0</text>
<line x1="372.0" y1="70" x2="372.0" y2="260" stroke="#2a313c" stroke-width="1"/>
<text x="372.0" y="276" font-family="-apple-system,'Segoe UI',Helvetica,Arial,sans-serif" font-size="11" fill="#8b949e" text-anchor="middle" style="font-variant-numeric:tabular-nums">2.5</text>
<line x1="482.0" y1="70" x2="482.0" y2="260" stroke="#2a313c" stroke-width="1"/>
<text x="482.0" y="276" font-family="-apple-system,'Segoe UI',Helvetica,Arial,sans-serif" font-size="11" fill="#8b949e" text-anchor="middle" style="font-variant-numeric:tabular-nums">5</text>
<line x1="592.0" y1="70" x2="592.0" y2="260" stroke="#2a313c" stroke-width="1"/>
<text x="592.0" y="276" font-family="-apple-system,'Segoe UI',Helvetica,Arial,sans-serif" font-size="11" fill="#8b949e" text-anchor="middle" style="font-variant-numeric:tabular-nums">7.5</text>
<line x1="702.0" y1="70" x2="702.0" y2="260" stroke="#2a313c" stroke-width="1"/>
<text x="702.0" y="276" font-family="-apple-system,'Segoe UI',Helvetica,Arial,sans-serif" font-size="11" fill="#8b949e" text-anchor="middle" style="font-variant-numeric:tabular-nums">10</text>
<text x="702" y="292" font-family="-apple-system,'Segoe UI',Helvetica,Arial,sans-serif" font-size="11" fill="#8b949e" text-anchor="end">tokens / second</text>
<line x1="262" y1="70" x2="262" y2="260" stroke="#3d4550" stroke-width="1"/>
<text x="248" y="87" font-family="-apple-system,'Segoe UI',Helvetica,Arial,sans-serif" font-size="12.5" fill="#e6edf3" text-anchor="end">freeToken-rs</text>
<text x="248" y="102" font-family="-apple-system,'Segoe UI',Helvetica,Arial,sans-serif" font-size="11" fill="#8b949e" text-anchor="end">hybrid CPU + GPU co-execution (q* split)</text>
<path d="M263,78 h387.6 a4,4 0 0 1 4,4 v16 a4,4 0 0 1 -4,4 h-387.6 Z" fill="#C96A38" fill-opacity="1.0"/>
<text x="662.6" y="94" font-family="-apple-system,'Segoe UI',Helvetica,Arial,sans-serif" font-size="12.5" font-weight="600" fill="#e6edf3" style="font-variant-numeric:tabular-nums">8.9</text>
<text x="248" y="131" font-family="-apple-system,'Segoe UI',Helvetica,Arial,sans-serif" font-size="12.5" fill="#e6edf3" text-anchor="end">llama.cpp</text>
<text x="248" y="146" font-family="-apple-system,'Segoe UI',Helvetica,Arial,sans-serif" font-size="11" fill="#8b949e" text-anchor="end">GPU dense + CPU experts (-ncmoe 30, fa)</text>
<path d="M263,122 h268.8 a4,4 0 0 1 4,4 v16 a4,4 0 0 1 -4,4 h-268.8 Z" fill="#5E8A4D" fill-opacity="1.0"/>
<text x="543.8" y="138" font-family="-apple-system,'Segoe UI',Helvetica,Arial,sans-serif" font-size="12.5" font-weight="600" fill="#e6edf3" style="font-variant-numeric:tabular-nums">6.2</text>
<text x="248" y="175" font-family="-apple-system,'Segoe UI',Helvetica,Arial,sans-serif" font-size="12.5" fill="#e6edf3" text-anchor="end">freeToken-rs</text>
<text x="248" y="190" font-family="-apple-system,'Segoe UI',Helvetica,Arial,sans-serif" font-size="11" fill="#8b949e" text-anchor="end">GPU fetch-on-miss (PCIe-bound)</text>
<path d="M263,166 h224.8 a4,4 0 0 1 4,4 v16 a4,4 0 0 1 -4,4 h-224.8 Z" fill="#C96A38" fill-opacity="1.0"/>
<text x="499.8" y="182" font-family="-apple-system,'Segoe UI',Helvetica,Arial,sans-serif" font-size="12.5" font-weight="600" fill="#e6edf3" style="font-variant-numeric:tabular-nums">5.2</text>
<text x="248" y="226" font-family="-apple-system,'Segoe UI',Helvetica,Arial,sans-serif" font-size="12.5" fill="#e6edf3" text-anchor="end">Python FreeToken</text>
<rect x="263" y="210" width="72" height="24" rx="4" fill="none" stroke="#8b949e" stroke-width="1.2" stroke-dasharray="4 4"/>
<text x="347" y="226" font-family="-apple-system,'Segoe UI',Helvetica,Arial,sans-serif" font-size="11.5" fill="#8b949e" stroke="#0d1117" stroke-width="4" paint-order="stroke">cannot run — torch cu130 needs driver ≥ 580</text>
<text x="24" y="306" font-family="-apple-system,'Segoe UI',Helvetica,Arial,sans-serif" font-size="11" fill="#8b949e">llama.cpp b f5e85d4, CUDA sm_75, best of 4 sustained 400-token runs (4.5–6.2 t/s); freeToken-rs best of 3 (8.0–8.9)</text>
</svg>